<mxfile host="app.diagrams.net" agent="Mozilla/5.0 (Windows NT 10.0; Win64; x64; rv:138.0) Gecko/20100101 Firefox/138.0" version="27.0.3">
  <diagram name="Page-1" id="ldX45UWWgHhQOTZwwglj">
    <mxGraphModel dx="1469" dy="813" grid="1" gridSize="10" guides="1" tooltips="1" connect="1" arrows="1" fold="1" page="1" pageScale="1" pageWidth="827" pageHeight="1169" math="0" shadow="0">
      <root>
        <mxCell id="0" />
        <mxCell id="1" parent="0" />
        <mxCell id="7jAFLYlnToqP1OYzs7xx-1" value="&lt;font style=&quot;font-size: 22px; color: light-dark(rgb(255, 255, 255), rgb(237, 237, 237));&quot;&gt;Input&lt;/font&gt;" style="rounded=0;whiteSpace=wrap;html=1;rotation=-90;fillColor=light-dark(#5ba457, #1f2f1e);strokeColor=light-dark(#000000, #446e2c);horizontal=0;textDirection=vertical-rl;strokeWidth=2;" vertex="1" parent="1">
          <mxGeometry x="84" y="180" width="120" height="60" as="geometry" />
        </mxCell>
        <mxCell id="7jAFLYlnToqP1OYzs7xx-10" style="edgeStyle=orthogonalEdgeStyle;rounded=0;orthogonalLoop=1;jettySize=auto;html=1;" edge="1" parent="1" source="7jAFLYlnToqP1OYzs7xx-2" target="7jAFLYlnToqP1OYzs7xx-3">
          <mxGeometry relative="1" as="geometry" />
        </mxCell>
        <mxCell id="7jAFLYlnToqP1OYzs7xx-2" value="&lt;font style=&quot;font-size: 22px;&quot;&gt;Conv2D&lt;/font&gt;" style="rounded=0;whiteSpace=wrap;html=1;rotation=-90;fillColor=#1ba1e2;fontColor=#ffffff;strokeColor=light-dark(#000000, #51afe7);strokeWidth=2;" vertex="1" parent="1">
          <mxGeometry x="174" y="180" width="120" height="60" as="geometry" />
        </mxCell>
        <mxCell id="7jAFLYlnToqP1OYzs7xx-11" style="edgeStyle=orthogonalEdgeStyle;rounded=0;orthogonalLoop=1;jettySize=auto;html=1;entryX=0.5;entryY=0;entryDx=0;entryDy=0;" edge="1" parent="1" source="7jAFLYlnToqP1OYzs7xx-3" target="7jAFLYlnToqP1OYzs7xx-4">
          <mxGeometry relative="1" as="geometry" />
        </mxCell>
        <mxCell id="7jAFLYlnToqP1OYzs7xx-3" value="&lt;font style=&quot;font-size: 22px;&quot;&gt;&lt;span style=&quot;color: light-dark(rgb(255, 255, 255), rgb(237, 237, 237));&quot;&gt;RELU&lt;/span&gt;&lt;/font&gt;" style="rounded=0;whiteSpace=wrap;html=1;rotation=-90;fillColor=#f0a30a;strokeColor=light-dark(#000000, #51afe7);fontColor=#000000;strokeWidth=2;" vertex="1" parent="1">
          <mxGeometry x="264" y="180" width="120" height="60" as="geometry" />
        </mxCell>
        <mxCell id="7jAFLYlnToqP1OYzs7xx-12" style="edgeStyle=orthogonalEdgeStyle;rounded=0;orthogonalLoop=1;jettySize=auto;html=1;" edge="1" parent="1" source="7jAFLYlnToqP1OYzs7xx-4" target="7jAFLYlnToqP1OYzs7xx-5">
          <mxGeometry relative="1" as="geometry" />
        </mxCell>
        <mxCell id="7jAFLYlnToqP1OYzs7xx-4" value="&lt;font style=&quot;font-size: 22px;&quot;&gt;Conv2D&lt;/font&gt;" style="rounded=0;whiteSpace=wrap;html=1;rotation=-90;fillColor=#1ba1e2;fontColor=#ffffff;strokeColor=light-dark(#000000, #51afe7);strokeWidth=2;" vertex="1" parent="1">
          <mxGeometry x="354" y="180" width="120" height="60" as="geometry" />
        </mxCell>
        <mxCell id="7jAFLYlnToqP1OYzs7xx-13" style="edgeStyle=orthogonalEdgeStyle;rounded=0;orthogonalLoop=1;jettySize=auto;html=1;" edge="1" parent="1" source="7jAFLYlnToqP1OYzs7xx-5" target="7jAFLYlnToqP1OYzs7xx-6">
          <mxGeometry relative="1" as="geometry" />
        </mxCell>
        <mxCell id="7jAFLYlnToqP1OYzs7xx-5" value="&lt;span style=&quot;color: rgb(255, 255, 255);&quot;&gt;&lt;font style=&quot;font-size: 22px;&quot;&gt;RELU&lt;/font&gt;&lt;/span&gt;" style="rounded=0;whiteSpace=wrap;html=1;rotation=-90;fillColor=#f0a30a;strokeColor=light-dark(#000000, #51afe7);fontColor=#000000;strokeWidth=2;" vertex="1" parent="1">
          <mxGeometry x="444" y="180" width="120" height="60" as="geometry" />
        </mxCell>
        <mxCell id="7jAFLYlnToqP1OYzs7xx-14" style="edgeStyle=orthogonalEdgeStyle;rounded=0;orthogonalLoop=1;jettySize=auto;html=1;" edge="1" parent="1" source="7jAFLYlnToqP1OYzs7xx-6" target="7jAFLYlnToqP1OYzs7xx-8">
          <mxGeometry relative="1" as="geometry" />
        </mxCell>
        <mxCell id="7jAFLYlnToqP1OYzs7xx-6" value="&lt;font style=&quot;font-size: 22px;&quot;&gt;Conv2D&lt;/font&gt;" style="rounded=0;whiteSpace=wrap;html=1;rotation=-90;fillColor=#1ba1e2;fontColor=#ffffff;strokeColor=light-dark(#000000, #51afe7);strokeWidth=2;" vertex="1" parent="1">
          <mxGeometry x="534" y="180" width="120" height="60" as="geometry" />
        </mxCell>
        <mxCell id="7jAFLYlnToqP1OYzs7xx-8" value="&lt;div&gt;&lt;font style=&quot;font-size: 22px; color: rgb(255, 255, 255);&quot;&gt;Ouput&lt;/font&gt;&lt;/div&gt;" style="rounded=0;whiteSpace=wrap;html=1;rotation=-90;fillColor=light-dark(#5ba457, #1f2f1e);strokeColor=light-dark(#000000, #446e2c);horizontal=0;textDirection=vertical-rl;strokeWidth=2;" vertex="1" parent="1">
          <mxGeometry x="624" y="180" width="120" height="60" as="geometry" />
        </mxCell>
        <mxCell id="7jAFLYlnToqP1OYzs7xx-9" value="" style="endArrow=classic;html=1;rounded=0;exitX=0.5;exitY=1;exitDx=0;exitDy=0;entryX=0.5;entryY=0;entryDx=0;entryDy=0;" edge="1" parent="1" source="7jAFLYlnToqP1OYzs7xx-1" target="7jAFLYlnToqP1OYzs7xx-2">
          <mxGeometry width="50" height="50" relative="1" as="geometry">
            <mxPoint x="390" y="450" as="sourcePoint" />
            <mxPoint x="440" y="400" as="targetPoint" />
          </mxGeometry>
        </mxCell>
        <mxCell id="7jAFLYlnToqP1OYzs7xx-16" value="3 → 64 Kernel : 9x9" style="text;html=1;align=center;verticalAlign=middle;whiteSpace=wrap;rounded=0;" vertex="1" parent="1">
          <mxGeometry x="196" y="100" width="76" height="30" as="geometry" />
        </mxCell>
        <mxCell id="7jAFLYlnToqP1OYzs7xx-18" value="64 → 32 Kernel : 5x5" style="text;html=1;align=center;verticalAlign=middle;whiteSpace=wrap;rounded=0;" vertex="1" parent="1">
          <mxGeometry x="376" y="100" width="76" height="30" as="geometry" />
        </mxCell>
        <mxCell id="7jAFLYlnToqP1OYzs7xx-19" value="32 → 3 Kernel : 5x5" style="text;html=1;align=center;verticalAlign=middle;whiteSpace=wrap;rounded=0;" vertex="1" parent="1">
          <mxGeometry x="556" y="100" width="76" height="30" as="geometry" />
        </mxCell>
      </root>
    </mxGraphModel>
  </diagram>
</mxfile>
